<svg width="86" height="76" viewBox="0 0 86 76" fill="none" xmlns="http://www.w3.org/2000/svg">
<path d="M43 76C32.8186 76 22.9435 72.7991 15.1939 66.9867C13.3743 65.6229 11.6674 64.1107 10.1211 62.4928C3.59403 55.6558 0 46.9578 0 38C0 27.8497 4.47267 18.3071 12.5943 11.1298C20.7159 3.95259 31.5141 0 43 0C54.4859 0 65.2841 3.95259 73.4057 11.1298C81.5273 18.3071 86 27.8497 86 38C86 46.9579 82.406 55.6559 75.8797 62.4919C74.3326 64.1107 72.6257 65.6229 70.8055 66.9872C63.0565 72.7991 53.1814 76 43 76ZM43 4.75C22.2535 4.75 5.375 19.6659 5.375 38C5.375 45.8382 8.51921 53.4485 14.2285 59.4289C15.5823 60.8454 17.0774 62.1699 18.6714 63.3649C25.4513 68.4497 34.0911 71.25 43 71.25C51.9089 71.25 60.5487 68.4497 67.3281 63.3652C68.9226 62.1699 70.4177 60.8453 71.7724 59.4278C77.4808 53.4486 80.625 45.8384 80.625 38C80.625 19.6659 63.7465 4.75 43 4.75Z" fill="#C7C3C3"/>
<path d="M43 38C34.1086 38 26.875 31.6075 26.875 23.75C26.875 15.8925 34.1086 9.5 43 9.5C51.8914 9.5 59.125 15.8925 59.125 23.75C59.125 31.6075 51.8914 38 43 38ZM43 14.25C37.0724 14.25 32.25 18.5116 32.25 23.75C32.25 28.9884 37.0724 33.25 43 33.25C48.9276 33.25 53.75 28.9884 53.75 23.75C53.75 18.5116 48.9276 14.25 43 14.25Z" fill="#C7C3C3"/>
<path d="M69.0691 67.5515C68.8524 67.5515 68.6324 67.5282 68.4127 67.4795C66.9732 67.1603 66.0991 65.87 66.4604 64.5978C66.9428 62.8992 67.1875 61.142 67.1875 59.375C67.1875 47.7546 56.497 38.1683 43.3539 38.0015L43 38L42.6461 38.0015C29.503 38.1683 18.8125 47.7546 18.8125 59.375C18.8125 61.142 19.0572 62.8992 19.5396 64.5978C19.9009 65.87 19.0268 67.1603 17.5873 67.4795C16.1478 67.7988 14.6877 67.0265 14.3264 65.7543C13.7365 63.6778 13.4375 61.5315 13.4375 59.375C13.4375 52.4611 16.4638 45.9439 21.9589 41.0237C27.4486 36.1083 34.7724 33.3483 42.5811 33.2518C42.5937 33.2516 42.6061 33.2516 42.6187 33.2516L43 33.25L43.3813 33.2515C43.3939 33.2515 43.4063 33.2515 43.4189 33.2516C51.2276 33.348 58.5514 36.1082 64.0411 41.0235C69.5362 45.9439 72.5625 52.4611 72.5625 59.375C72.5625 61.5315 72.2635 63.6778 71.6736 65.7543C71.3674 66.8322 70.2722 67.5514 69.0691 67.5515Z" fill="#C7C3C3"/>
</svg>
